Patient4_TMGait_0pt5_02_left_13_GRF.mot
version=1
nRows=39
nColumns=19
inDegrees=no
endheader
time	F1x	F1y	F1z	M1x	M1y	M1z	F2x	F2y	F2z	M2x	M2y	M2z	EC1x	EC1y	EC1z	EC2x	EC2y	EC2z
16.33	-7.6767	-3.7321	-2.0528	0.27187	1.9403	-0.42929	-17.5503	773.1523	-69.7377	285.3516	65.877	633.1576	-0.0592	0.0182	-0.0073	-0.0462	0.0165	0.9585
16.343	-5.1004	-2.1711	-1.3106	0.036846	1.2463	-0.029779	-19.0191	761.0233	-67.4885	280.1671	63.2861	621.0758	-0.0592	0.0182	-0.0073	-0.0462	0.0165	0.9585
16.356	-2.9546	-0.82423	-0.65957	-0.16849	0.63853	0.36002	-19.6364	748.9273	-65.0394	275.0381	60.3625	608.5987	-0.0592	0.0182	-0.0073	-0.0462	0.0165	0.9585
16.369	-1.3582	0.21786	-0.14043	-0.33164	0.15316	0.70216	-19.3624	738.3456	-62.6096	270.5977	57.3422	596.9825	-0.0592	0.0182	-0.0073	-0.0462	0.0165	0.9585
16.382	-0.28093	0.95443	0.22783	-0.45183	-0.19047	0.97029	-18.3071	730.5245	-60.3348	267.3632	54.3871	587.2624	-0.0592	0.0182	-0.0073	-0.0462	0.0165	0.9585
16.395	0.34785	1.4332	0.46704	-0.53552	-0.4189	1.1745	-16.6391	726.2695	-58.3114	265.6575	51.6095	580.1034	-0.0592	0.0182	-0.0073	-0.0462	0.0165	0.9585
16.408	0.65139	1.7024	0.6014	-0.58779	-0.55439	1.3066	-14.5196	725.8099	-56.5963	265.5606	49.0684	575.7043	-0.0592	0.0182	-0.0073	-0.0462	0.0165	0.9585
16.421	0.7178	1.8134	0.67227	-0.61269	-0.63943	1.3869	-12.0782	728.7997	-55.2344	266.9194	46.795	573.7977	-0.0592	0.0182	-0.0073	-0.0462	0.0165	0.9585
16.434	0.64156	1.7893	0.70304	-0.60666	-0.69352	1.3881	-9.4244	734.4561	-54.2341	269.409	44.7858	573.7815	-0.0592	0.0182	-0.0073	-0.0462	0.0165	0.9585
16.447	0.47673	1.6347	0.71569	-0.5587	-0.73975	1.2895	-6.611	741.7486	-53.5734	272.6099	43.0015	574.8595	-0.0592	0.0182	-0.0073	-0.0462	0.0165	0.9585
16.46	0.2682	1.322	0.71367	-0.45008	-0.77961	1.0485	-3.659	749.5863	-53.2125	276.0814	41.3835	576.2029	-0.0592	0.0182	-0.0073	-0.0462	0.0165	0.9585
16.473	0.055014	0.80237	0.70401	-0.2582	-0.81478	0.61248	-0.5944	756.9302	-53.1038	279.4051	39.8773	577.038	-0.0592	0.0182	-0.0073	-0.0462	0.0165	0.9585
16.486	-0.14154	0.027786	0.67691	0.036274	-0.83015	-0.059785	2.5153	762.8779	-53.2108	282.2142	38.4628	576.7322	-0.0592	0.0182	-0.0073	-0.0462	0.0165	0.9585
16.499	-0.26828	-1.0451	0.62386	0.44565	-0.79953	-1.0207	5.5627	766.7479	-53.4919	284.2268	37.1415	574.8592	-0.0592	0.0182	-0.0073	-0.0462	0.0165	0.9585
16.512	-0.28875	-2.3997	0.51765	0.95978	-0.68033	-2.2403	8.4194	768.1677	-53.9135	285.2777	35.9404	571.2403	-0.0592	0.0182	-0.0073	-0.0462	0.0165	0.9585
16.525	-0.11437	-3.9393	0.3304	1.5384	-0.41415	-3.6461	10.9669	767.088	-54.4425	285.3221	34.889	565.9342	-0.0592	0.0182	-0.0073	-0.0462	0.0165	0.9585
16.538	0.34172	-5.4184	0.020617	2.0886	0.068591	-5.0181	13.1187	763.751	-55.0802	284.4262	34.035	559.2112	-0.0592	0.0182	-0.0073	-0.0462	0.0165	0.9585
16.551	1.1994	-6.4046	-0.44913	2.447	0.84008	-5.9703	14.8613	758.6527	-55.8371	282.7585	33.4014	551.492	-0.0592	0.0182	-0.0073	-0.0462	0.0165	0.9585
16.564	2.5697	-6.2148	-1.1065	2.3572	1.966	-5.8773	16.2499	752.4808	-56.7437	280.5638	32.997	543.3054	-0.0592	0.0182	-0.0073	-0.0462	0.0165	0.9585
16.577	4.5287	-3.8769	-1.9481	1.4578	3.4703	-3.8402	17.3963	745.9347	-57.8193	278.0985	32.799	535.1736	-0.0592	0.0182	-0.0073	-0.0462	0.0165	0.9585
16.59	7.0766	1.842	-2.9257	-0.7091	5.3043	1.2702	18.4395	739.528	-59.0647	275.5556	32.7703	527.4733	-0.0592	0.0182	-0.0073	-0.0462	0.0165	0.9585
16.603	10.04	12.3631	-3.9079	-4.6641	7.2779	10.7784	19.5012	733.3819	-60.4075	272.9892	32.8315	520.2871	-0.0592	0.0182	-0.0073	-0.0462	0.0165	0.9585
16.616	12.9933	29.0808	-4.6629	-10.9148	9.0111	25.9857	20.6397	727.0978	-61.7183	270.2656	32.8908	513.3422	-0.0592	0.0182	-0.0073	-0.0462	0.0165	0.9585
16.629	15.0719	53.0814	-4.8715	-19.8456	9.8838	47.9384	21.8474	719.7336	-62.7986	267.0598	32.8319	505.9932	-0.0592	0.0182	-0.0073	-0.0462	0.0165	0.9585
16.642	15.1007	84.7171	-4.1821	-31.5677	9.1345	77.0157	23.0492	709.9236	-63.4094	262.898	32.5352	497.2966	-0.0592	0.0182	-0.0073	-0.0462	0.0165	0.9585
16.655	12.3305	123.6269	-2.2191	-45.922	6.1414	112.9562	24.1511	696.149	-63.2753	257.2574	31.8606	486.1891	-0.0592	0.0182	-0.0073	-0.0462	0.0165	0.9585
16.668	7.0458	168.6586	1.244	-62.4519	0.80522	154.6873	25.0825	677.0546	-62.1409	249.68	30.6726	471.7095	-0.0592	0.0182	-0.0073	-0.0462	0.0165	0.9585
16.681	0.067446	217.0038	6.3752	-80.0969	-6.7028	199.4792	25.769	651.6104	-59.8284	239.829	28.8864	453.116	-0.0592	0.0182	-0.0073	-0.0462	0.0165	0.9585
16.694	-7.4708	264.649	12.9075	-97.406	-15.6706	243.372	26.1552	619.2165	-56.2791	227.5233	26.4886	429.9433	-0.0592	0.0182	-0.0073	-0.0462	0.0165	0.9585
16.707	-14.5054	309.2039	20.0729	-113.5518	-24.948	283.8991	26.2069	579.8896	-51.5847	212.7942	23.5469	402.1543	-0.0592	0.0182	-0.0073	-0.0462	0.0165	0.9585
16.72	-20.5365	350.8931	27.0309	-128.6733	-33.5357	321.0997	25.907	534.2602	-46.0395	195.8758	20.247	370.1403	-0.0592	0.0182	-0.0073	-0.0462	0.0165	0.9585
16.733	-25.2332	391.1616	33.0945	-143.3509	-40.6703	356.1867	25.2185	483.308	-40.0258	177.1119	16.829	334.551	-0.0592	0.0182	-0.0073	-0.0462	0.0165	0.9585
16.746	-28.3701	431.2482	37.8545	-158.0669	-45.9032	390.2569	24.0476	428.2026	-33.892	156.9058	13.5235	296.1964	-0.0592	0.0182	-0.0073	-0.0462	0.0165	0.9585
16.759	-29.8352	471.7227	41.2168	-173.0276	-49.1321	423.8266	22.2569	370.3092	-27.8942	135.7306	10.5104	256.0275	-0.0592	0.0182	-0.0073	-0.0462	0.0165	0.9585
16.772	-29.6916	512.6603	43.4034	-188.2233	-50.616	457.0036	19.7201	311.2628	-22.2555	114.1555	7.9561	215.1864	-0.0592	0.0182	-0.0073	-0.0462	0.0165	0.9585
16.785	-28.2241	553.8273	44.8798	-203.5026	-50.9081	489.7051	16.4217	252.9898	-17.1578	92.8607	5.9645	174.9965	-0.0592	0.0182	-0.0073	-0.0462	0.0165	0.9585
16.798	-25.8261	594.8017	46.2328	-218.6373	-50.7079	521.7023	12.5119	197.6507	-12.7605	72.6176	4.5761	136.9157	-0.0592	0.0182	-0.0073	-0.0462	0.0165	0.9585
16.811	-23.0181	635.1411	47.9218	-233.3946	-50.6306	552.7824	8.349	147.43	-9.1531	54.217	3.7208	102.4014	-0.0592	0.0182	-0.0073	-0.0462	0.0165	0.9585
16.824	-20.2707	674.2289	50.1895	-247.5042	-51.0785	582.5624	4.4306	104.134	-6.3413	38.3242	3.2336	72.6516	-0.0592	0.0182	-0.0073	-0.0462	0.0165	0.9585
